# xmcd
#
# Track frame offsets: 
#        150
#        24949
#        49139
#        75150
#        101063
#        127636
#        144937
#        165490
#        187615
#        215375
#        238223
#        263220
#
# Disc length: 3810 seconds
#
# Revision: 0
# Processed by: cddbd v1.5.2PL0 Copyright (c) Steve Scherf et al.
# Submitted via: ExactAudioCopy v1.0b3
#
DISCID=8a0ee00c
DTITLE=Huyen Chau - Mai Toc Nguoi Thuong
DYEAR=1990
DGENRE=
TTITLE0=Truc dao
TTITLE1=Ve dau mai toc nguoi thuong
TTITLE2=Sai Gon niem nho khong ten
TTITLE3=Neu mot ngay
TTITLE4=Doi thong hai mo
TTITLE5=Nu cuoi son cuoc
TTITLE6=Hoa trinh nu
TTITLE7=Hoai thu
TTITLE8=Buon tan thu
TTITLE9=Gui ve ben ay
TTITLE10=Neu hai dua minh
TTITLE11=Ngay xua Hoang Thi
EXTD=
EXTT0=
EXTT1=
EXTT2=
EXTT3=
EXTT4=
EXTT5=
EXTT6=
EXTT7=
EXTT8=
EXTT9=
EXTT10=
EXTT11=
PLAYORDER=
